<svg version="1.1" id="Layer_1" xmlns="http://www.w3.org/2000/svg" xmlns:xlink="http://www.w3.org/1999/xlink" x="0px" y="0px"
	 width="100%" viewBox="0 0 1024 1024" enable-background="new 0 0 1024 1024" xml:space="preserve">
<path fill="#000000" opacity="1.000000" stroke="none" 
	d="
M336.969299,845.000000 
	C336.969940,835.334167 337.021484,826.167908 336.946625,817.002686 
	C336.915588,813.204224 337.959839,811.992554 342.016876,813.365906 
	C423.923859,841.092468 513.452393,813.819885 565.585205,745.155884 
	C586.756836,717.270874 600.319763,685.882263 604.396973,651.120544 
	C612.070251,585.698669 592.797607,529.063232 546.243225,482.163361 
	C513.371338,449.047516 480.202454,416.226501 447.166718,383.273315 
	C446.812775,382.920258 446.468506,382.557495 446.116669,382.202332 
	C439.817322,375.843170 439.804901,375.845734 433.606476,382.027863 
	C429.004730,386.617523 424.645630,391.492523 419.718658,395.702271 
	C414.741486,399.954895 413.133881,404.803589 413.147949,411.346222 
	C413.349030,504.670776 413.280029,597.995911 413.283295,691.320923 
	C413.284424,724.151245 413.317322,756.981628 413.306030,789.811951 
	C413.303741,796.404419 413.240479,796.333618 406.598785,796.443115 
	C384.312988,796.810730 362.979340,792.279724 342.247467,784.327393 
	C338.437439,782.865967 336.881866,780.865662 336.884155,776.632935 
	C336.999542,561.985596 337.008575,347.338226 337.036743,132.690842 
	C337.037598,126.017586 337.250000,125.819321 343.647766,125.811501 
	C364.812531,125.785645 385.978638,125.896805 407.140991,125.661514 
	C411.993469,125.607559 413.393951,127.228439 413.380981,131.978958 
	C413.243011,182.474060 413.281342,232.969696 413.331787,283.465118 
	C413.334503,286.209442 412.604370,289.129425 414.378387,291.768860 
	C417.036438,291.464905 418.340546,289.352936 419.924164,287.770935 
	C444.792542,262.927887 469.594269,238.018036 494.465820,213.178146 
	C522.521545,185.158157 550.649902,157.210968 578.686157,129.171600 
	C581.097595,126.759895 583.645081,125.703011 587.083740,125.712654 
	C618.913879,125.801994 650.744507,125.746857 682.574951,125.766556 
	C684.177063,125.767548 685.909302,125.335579 687.565186,126.737076 
	C687.534119,129.148758 685.395081,130.228790 683.969360,131.656158 
	C622.138062,193.556580 560.276245,255.426392 498.418854,317.300751 
	C493.682617,322.038330 493.683075,322.043182 498.585602,326.948669 
	C532.630920,361.013977 566.672241,395.083344 600.724487,429.141663 
	C642.023193,470.447601 668.357239,519.851746 677.849548,577.383484 
	C691.404419,659.537415 672.199341,733.895569 619.780823,798.776123 
	C578.353333,850.052673 524.492126,881.710815 459.923401,894.840576 
	C420.694824,902.817505 381.534607,901.695862 342.552643,892.590820 
	C338.354340,891.610291 336.812012,889.842896 336.890137,885.497559 
	C337.129761,872.168823 336.972290,858.833069 336.969299,845.000000 
M378.738190,580.876221 
	C382.236938,568.832397 381.557068,556.849243 378.069550,544.951050 
	C377.405182,542.684509 376.125031,540.314453 373.346405,540.554504 
	C370.783142,540.776062 370.857208,543.434998 370.534607,545.289307 
	C368.721802,555.708557 368.879547,566.180969 370.327759,576.612427 
	C370.970032,581.238464 374.183624,582.987122 378.738190,580.876221 
z"/>
</svg>